<svg width="29" height="29" viewBox="0 0 29 29" fill="none" xmlns="http://www.w3.org/2000/svg">
<g id="Group 163">
<circle id="Ellipse 23" cx="14.2647" cy="14.2647" r="12" transform="rotate(-12.199 14.2647 14.2647)" fill="#403D3A"/>
<g id="Group">
<path id="Vector" d="M18.5156 12.0419C18.4282 10.6822 17.2717 10.191 15.7985 10.0149L15.8576 8.13427L14.7134 8.09882L14.6554 9.92991C14.3547 9.91996 14.0475 9.91665 13.7409 9.91321L13.7995 8.07013L12.6552 8.03405L12.596 9.91409C12.3481 9.91112 12.1042 9.90861 11.867 9.90069L11.867 9.89476L10.2882 9.84474L10.25 11.0671C10.25 11.0671 11.0961 11.0776 11.0815 11.0926C11.5451 11.1074 11.6872 11.3812 11.724 11.6153L11.657 13.7575C11.6888 13.7585 11.7302 13.7614 11.7779 13.7689L11.6568 13.7655L11.5624 16.7666C11.5371 16.9115 11.4441 17.1414 11.1198 17.1319C11.1345 17.1452 10.2881 17.1059 10.2881 17.1059L10.0176 18.4653L11.5076 18.5122C11.7845 18.5213 12.0571 18.5348 12.3243 18.5447L12.2652 20.4465L13.4087 20.4821L13.4678 18.6014C13.7816 18.6171 14.0854 18.629 14.3822 18.6385L14.3227 20.5114L15.4669 20.5468L15.5268 18.6489C17.455 18.599 18.8168 18.1566 19.0409 16.3547C19.2219 14.9042 18.5578 14.2328 17.4737 13.9364C18.1484 13.6196 18.5815 13.0372 18.5156 12.0419ZM16.786 16.0582C16.7427 17.4797 14.3136 17.2412 13.5376 17.2176L13.6177 14.6977C14.3939 14.7226 16.8332 14.5761 16.786 16.0582ZM16.3657 12.4863C16.3249 13.7796 14.3 13.5643 13.6544 13.5441L13.7261 11.2595C14.3717 11.2797 16.4081 11.1374 16.3657 12.4863Z" fill="#DB953C"/>
</g>
</g>
</svg>
