<svg width="19" height="23" viewBox="0 0 19 23" fill="none" xmlns="http://www.w3.org/2000/svg">
<g id="Layer 5">
<g id="Group">
<path id="Vector" fill-rule="evenodd" clip-rule="evenodd" d="M10.5398 2.62379L12.2369 0L18.9695 9.95925H12.4267L7.5141 2.70195L2.88059 9.30051L5.81701 9.32284L8.28449 5.82817L9.1442 7.13449L6.65439 10.6738H0L7.48061 0.0334947L13.2753 8.60828H16.2005L12.1811 2.73544L11.4107 3.91894L10.5398 2.62379Z" fill="white"/>
</g>
<g id="Group_2">
<path id="Vector_2" fill-rule="evenodd" clip-rule="evenodd" d="M7.5141 20.2982L12.4267 13.0409H18.9695L12.2369 23.0001L10.5398 20.3763L11.4107 19.0812L12.1811 20.2647L16.2005 14.3918H13.2753L7.48061 22.9666L0 12.3263H6.65439L9.1442 15.8656L8.28449 17.1719L5.81701 13.6773L2.88059 13.6996L7.5141 20.2982Z" fill="white"/>
</g>
</g>
</svg>
