<svg width="24" height="21" viewBox="0 0 24 21" fill="none" xmlns="http://www.w3.org/2000/svg">
<g id="wallet icon">
<rect id="Rectangle 43" width="23.8" height="21" rx="3" fill="#1E2328"/>
<path id="Vector" d="M17.4186 16.6H7.09302C5.93892 16.6 5 15.6611 5 14.507V6.69303C5 5.53893 5.93892 4.60001 7.09302 4.60001H17.4186C18.5727 4.60001 19.5116 5.53893 19.5116 6.69303V14.507C19.5116 15.6611 18.5727 16.6 17.4186 16.6ZM18.6744 9.34418H15.6047C14.9122 9.34418 14.3488 9.90753 14.3488 10.6C14.3488 11.2925 14.9122 11.8558 15.6047 11.8558H18.6744V9.34418ZM18.6744 12.693H15.6047C14.4506 12.693 13.5116 11.7541 13.5116 10.6C13.5116 9.4459 14.4506 8.50698 15.6047 8.50698H18.6744V6.69303C18.6744 6.00058 18.1111 5.4372 17.4186 5.4372H7.09302C6.40057 5.4372 5.8372 6.00055 5.8372 6.69303V14.507C5.8372 15.1994 6.40054 15.7628 7.09302 15.7628H17.4186C18.1111 15.7628 18.6744 15.1995 18.6744 14.507V12.693Z" fill="#C0996F"/>
<path id="Vector_2" d="M16.5768 11H16.0187C15.7875 11 15.6001 10.8126 15.6001 10.5814C15.6001 10.3502 15.7875 10.1628 16.0187 10.1628H16.5768C16.808 10.1628 16.9954 10.3502 16.9954 10.5814C16.9954 10.8126 16.808 11 16.5768 11Z" fill="white"/>
</g>
</svg>
